<svg viewBox="0 0 149.776 14.301" height="14.301" width="149.776" xmlns="http://www.w3.org/2000/svg">
  <g transform="translate(623.018 -668.462)" data-name="Group 35" id="Group_35">
    <path fill="#fff" transform="translate(-623.018 682.741) rotate(-90)" d="M13.294,7.532c-.461.056-.728.083-.8.083l-.934-.041a6.931,6.931,0,0,1-.766-.053.392.392,0,0,1-.042-.157l.021-.094a3.8,3.8,0,0,0,2.14-1.138,2.947,2.947,0,0,0,.671-1.957,2.865,2.865,0,0,0-.671-1.961,2.025,2.025,0,0,0-1.563-.766,1.779,1.779,0,0,0-1.249.535A12.08,12.08,0,0,0,8.41,4.721a17.723,17.723,0,0,1-1.419,2.4A3.715,3.715,0,0,1,5.715,8.215,3.542,3.542,0,0,1,4.1,8.582,4.091,4.091,0,0,1,1.985,8,3.767,3.767,0,0,1,.5,6.431,5.81,5.81,0,0,1,0,3.819,8.235,8.235,0,0,1,.452,1.1,3.048,3.048,0,0,1,.892.168.5.5,0,0,1,1.249,0a2.514,2.514,0,0,1,.294.021A20.3,20.3,0,0,0,3.578.179a1.769,1.769,0,0,1,.577.074.164.164,0,0,1,.073.157.19.19,0,0,1-.067.152A.506.506,0,0,1,3.9.64a3.557,3.557,0,0,0-2.309,1.2A3.429,3.429,0,0,0,.577,4.26,3.386,3.386,0,0,0,.923,5.786a2.589,2.589,0,0,0,1,1.091A2.475,2.475,0,0,0,3.2,7.27a2.343,2.343,0,0,0,1.553-.6A8.468,8.468,0,0,0,6.4,4.269,17.971,17.971,0,0,1,7.765,1.92,5.177,5.177,0,0,1,9.255.6,2.95,2.95,0,0,1,10.671.273a3.168,3.168,0,0,1,2.471,1.154,4.531,4.531,0,0,1,1.012,3.1,6.284,6.284,0,0,1-.241,1.846,4.43,4.43,0,0,1-.619,1.165" data-name="Path 156" id="Path_156"></path>
    <path fill="#fff" transform="translate(-611.208 682.584) rotate(-90)" d="M.325,0A.19.19,0,0,1,.44.158,5.13,5.13,0,0,0,.818,1.826a.812.812,0,0,0,.63.209l1.028-.01H4.427l.85.021,2.917-.063L10.156,2q1.658,0,2.214-.063A1.179,1.179,0,0,0,12.8,1.8a.947.947,0,0,0,.136-.314q.073-.452.115-1.164A.3.3,0,0,1,13.3.179a.479.479,0,0,1,.158.041q.031.579.031,2.047,0,.681.01,1.075.032.56.094,1.358-.031.346-.031.818c-.041.077-.091.115-.146.115a.511.511,0,0,1-.136-.02,1.633,1.633,0,0,1-.105-.473,2.193,2.193,0,0,0-.4-1.237,1.1,1.1,0,0,0-.8-.221l-.2.011H5.12l-2.7.074a8.739,8.739,0,0,0-1.411.063A.411.411,0,0,0,.808,4,2.767,2.767,0,0,0,.513,5.12a2.121,2.121,0,0,1-.074.368.577.577,0,0,1-.23.062.259.259,0,0,1-.2-.126L0,5.088q0-.21.074-1.007T.147,2.9a7.713,7.713,0,0,0-.074-.9A13.047,13.047,0,0,1,0,.42c0-.1,0-.231.011-.4Zm6.6,4.049a2.975,2.975,0,0,1,.294.419q.355.588,1.426,2.025l2.347,2.874a14.653,14.653,0,0,0,1.552,1.669,1.081,1.081,0,0,0,.261.146,1.269,1.269,0,0,0,.2-.43,4.333,4.333,0,0,0,.094-.766,1.774,1.774,0,0,1,.1-.625.2.2,0,0,1,.173-.1.222.222,0,0,1,.179.074.68.68,0,0,1,.094.389,3.622,3.622,0,0,1-.057.692,9.134,9.134,0,0,0-.057,1.332c0,.168,0,.291.01.367l.084,1.636c.013.168.021.3.021.389s-.006.21-.021.377a1.576,1.576,0,0,1-.4-.041,7.28,7.28,0,0,0-.347-1.668,11.922,11.922,0,0,0-.694-1.238,9.982,9.982,0,0,0-.926-1.28L8.976,7.586,7.655,5.95a.559.559,0,0,0-.147.126q-.053.063-.294.315Q6.186,7.491,4.69,9.364T2.189,12.3A5.327,5.327,0,0,0,.556,15.223a.812.812,0,0,1-.189.482l-.116.011-.146-.022q-.022-.357-.022-.482,0-.482.068-1.459c.024-.384.037-.7.037-.954q0-1.511-.126-3.452a1.128,1.128,0,0,1,.215-.031l.082.011a1.384,1.384,0,0,1,.23.545,5.456,5.456,0,0,1,.17,1.2,2.177,2.177,0,0,0,.022.294,2.072,2.072,0,0,0,.394-.347l.277-.283q.236-.242.77-.85l1-1.248L4.833,6.714Q5.65,5.759,6.92,4.049" data-name="Path 157" id="Path_157"></path>
    <path fill="#fff" transform="translate(-592.83 682.542) rotate(-90)" d="M.307.011A.506.506,0,0,1,.419.189,3.26,3.26,0,0,1,.5.8,4.173,4.173,0,0,0,.693,2.057a1.013,1.013,0,0,0,.588.147l.736-.011,2.67.011,1.262-.022,2.637.011,2.995-.053A2.911,2.911,0,0,0,12.79,2,1.939,1.939,0,0,0,13.021.882a4.969,4.969,0,0,1,.063-.7.215.215,0,0,1,.189-.136.5.5,0,0,1,.2.052.357.357,0,0,1,.053.169c0,.1,0,.216-.011.356A12.573,12.573,0,0,0,13.451,1.9l.021.776-.042,1.847q0,1.384.031,2.162t.032,1.048q0,.241-.042,1.2l.01,1.49-.031.178.031.871-.052.105a.569.569,0,0,1-.178.074,3.277,3.277,0,0,1-.452-.048,3.651,3.651,0,0,0-.378-.048q-1.091,0-1.846.074a.1.1,0,0,1-.084-.062.646.646,0,0,1,.031-.206,5.529,5.529,0,0,1,.7-.31,8.187,8.187,0,0,0,1.164-.583,1.639,1.639,0,0,0,.525-.409,1.434,1.434,0,0,0,.083-.609c0-.064.007-.381.022-.955.006-.154.01-.305.01-.452l-.063-2.993V4.785c0-.384-.049-.616-.147-.693a3.445,3.445,0,0,0-1.479-.179q-.125,0-2.517.053H7.345a.965.965,0,0,0-.031.252V4.4c0,.119,0,.294-.011.524q-.02.545-.021.735a1.967,1.967,0,0,0,.011.22q.042,1.132.042,2.917a1.225,1.225,0,0,0,.22.65,2.19,2.19,0,0,0,.987.236q.8.079.9.352a.6.6,0,0,1-.053.251.633.633,0,0,1-.157.022,2.176,2.176,0,0,1-.241-.022q-.388-.053-2.434-.052-.545,0-1.218.057t-.724.057a1.45,1.45,0,0,1-.251-.031.319.319,0,0,1-.042-.136V10.1a3.846,3.846,0,0,1,.913-.326,2.94,2.94,0,0,0,1.327-.572,1.43,1.43,0,0,0,.268-.97c0-.1-.005-.276-.016-.535S6.8,7.057,6.8,6.547V5.865a17.888,17.888,0,0,0-.063-1.909L6.39,3.944l-1.935.011L3.236,3.944l-1.188.011a3.215,3.215,0,0,0-1.241.136.97.97,0,0,0-.231.777l.011.64c0,.056-.005.275-.016.655S.557,7.015.557,7.575a13.211,13.211,0,0,0,.173,2.7,2.339,2.339,0,0,0,.616,1.107,7.339,7.339,0,0,0,1.906,1.1q.431.2.431.4a.365.365,0,0,1-.083.21,11.675,11.675,0,0,0-1.364-.347,11.737,11.737,0,0,0-1.5-.136.961.961,0,0,1-.577-.168V12.2L.126,9.253.136,7.932.094,4.784V3.5c0-.162,0-.312-.011-.452Q0,1.165,0,.273A.329.329,0,0,1,.051.058.194.194,0,0,1,.2,0Z" data-name="Path 158" id="Path_158"></path>
    <path fill="#fff" transform="translate(-576.696 682.605) rotate(-90)" d="M13.6.063A2.1,2.1,0,0,1,13.629.3q0,.357-.042,1.176-.009.43-.01.587c0,.153.013.479.041.976l.105,1.784q.063.7.063,1.636a6.162,6.162,0,0,1-.466,2.623,3.279,3.279,0,0,1-1.461,1.505,4.191,4.191,0,0,1-1.98.53A3.947,3.947,0,0,1,7.039,9.967,4.117,4.117,0,0,1,5.845,6.862a3.212,3.212,0,0,1,.11-.912,3.236,3.236,0,0,1,.426-.839.548.548,0,0,1,.283-.241.241.241,0,0,1,.105.115.81.81,0,0,1-.063.3,2.76,2.76,0,0,0-.126.9,3.19,3.19,0,0,0,.408,1.568A2.658,2.658,0,0,0,8.15,8.876a3.514,3.514,0,0,0,1.592.378,3.421,3.421,0,0,0,1.586-.4A3.384,3.384,0,0,0,12.56,7.809,3.254,3.254,0,0,0,13,6.683a5.576,5.576,0,0,0,.179-1.178,3.419,3.419,0,0,0-.189-1.539l-.146-.011-1.184.031-.21-.01c-.189-.014-.478-.022-.87-.022q-2.14,0-2.663.063H7.329l-4.792.136c-.07,0-.2-.009-.389-.026S1.8,4.1,1.656,4.1a2.672,2.672,0,0,0-.766.083q-.073.252-.346,1.47c-.091.377-.144.583-.157.618a.3.3,0,0,1-.136.147.354.354,0,0,1-.2-.11A.514.514,0,0,1,0,6.044q0-.127.052-.588.094-.9.094-1.417L.073,2.193.1,1.092C.1,1.022.1.819.083.482L.356.472.619,1.837a.881.881,0,0,0,.189.409,1.091,1.091,0,0,0,.576.1q.094,0,.409.011.219.011.608.011,1.237,0,5.274-.105,1.886-.042,3.837-.042h.179q.754,0,.953-.231A4.314,4.314,0,0,0,13.209.052.484.484,0,0,1,13.4,0a.432.432,0,0,1,.2.063" data-name="Path 159" id="Path_159"></path>
    <path fill="#fff" transform="translate(-562.461 682.605) rotate(-90)" d="M13.6.063A2.071,2.071,0,0,1,13.629.3q0,.357-.042,1.175c-.006.286-.01.483-.01.587,0,.154.013.479.041.977l.105,1.783q.063.7.063,1.636a6.159,6.159,0,0,1-.466,2.623,3.279,3.279,0,0,1-1.461,1.505,4.191,4.191,0,0,1-1.98.53A3.947,3.947,0,0,1,7.039,9.967,4.118,4.118,0,0,1,5.845,6.862a3.215,3.215,0,0,1,.11-.913A3.249,3.249,0,0,1,6.38,5.11a.553.553,0,0,1,.283-.241.241.241,0,0,1,.105.115.814.814,0,0,1-.063.305,2.751,2.751,0,0,0-.126.9,3.193,3.193,0,0,0,.408,1.569A2.656,2.656,0,0,0,8.15,8.875a3.5,3.5,0,0,0,1.592.378,3.421,3.421,0,0,0,1.586-.4A3.375,3.375,0,0,0,12.56,7.808,3.253,3.253,0,0,0,13,6.682a5.561,5.561,0,0,0,.179-1.177,3.421,3.421,0,0,0-.189-1.54l-.146-.011-1.184.031-.21-.011c-.189-.014-.478-.021-.87-.021q-2.14,0-2.663.063H7.329l-4.792.136c-.07,0-.2-.009-.389-.026S1.8,4.1,1.656,4.1a2.641,2.641,0,0,0-.766.083Q.818,4.438.545,5.655c-.091.378-.144.584-.157.619a.3.3,0,0,1-.136.146.359.359,0,0,1-.2-.11A.518.518,0,0,1,0,6.043c0-.083.017-.28.052-.588q.094-.9.094-1.417L.073,2.193.1,1.092C.1,1.022.1.819.083.483L.356.472.619,1.836a.871.871,0,0,0,.189.409,1.081,1.081,0,0,0,.576.105q.094,0,.409.011.219.009.608.01,1.237,0,5.274-.1,1.886-.043,3.837-.042h.179q.754,0,.953-.231A4.322,4.322,0,0,0,13.209.053.488.488,0,0,1,13.4,0a.443.443,0,0,1,.2.063" data-name="Path 160" id="Path_160"></path>
    <path fill="#fff" transform="translate(-547.388 682.742) rotate(-90)" d="M13.294,7.533c-.461.056-.728.084-.8.084l-.934-.042a6.922,6.922,0,0,1-.766-.053.4.4,0,0,1-.042-.157l.021-.094a3.8,3.8,0,0,0,2.14-1.138,2.947,2.947,0,0,0,.671-1.957,2.864,2.864,0,0,0-.671-1.961,2.025,2.025,0,0,0-1.563-.766,1.782,1.782,0,0,0-1.249.534A12.117,12.117,0,0,0,8.41,4.721a17.783,17.783,0,0,1-1.419,2.4A3.7,3.7,0,0,1,5.715,8.214,3.531,3.531,0,0,1,4.1,8.582,4.082,4.082,0,0,1,1.985,8,3.767,3.767,0,0,1,.5,6.431,5.813,5.813,0,0,1,0,3.819,8.234,8.234,0,0,1,.452,1.1,3.047,3.047,0,0,1,.892.168.5.5,0,0,1,1.249,0a2.725,2.725,0,0,1,.294.021A20.306,20.306,0,0,0,3.578.179a1.808,1.808,0,0,1,.577.073.166.166,0,0,1,.073.157.191.191,0,0,1-.067.153A.506.506,0,0,1,3.9.64a3.553,3.553,0,0,0-2.309,1.2A3.427,3.427,0,0,0,.577,4.259,3.387,3.387,0,0,0,.923,5.786a2.589,2.589,0,0,0,1,1.091A2.467,2.467,0,0,0,3.2,7.27a2.343,2.343,0,0,0,1.553-.6A8.468,8.468,0,0,0,6.4,4.269a18,18,0,0,1,1.369-2.35A5.174,5.174,0,0,1,9.255.6,2.95,2.95,0,0,1,10.671.273a3.166,3.166,0,0,1,2.471,1.154,4.525,4.525,0,0,1,1.012,3.094,6.3,6.3,0,0,1-.241,1.847,4.44,4.44,0,0,1-.619,1.164" data-name="Path 161" id="Path_161"></path>
    <path fill="#fff" transform="translate(-535.347 682.615) rotate(-90)" d="M.052,0,.283.011A2.161,2.161,0,0,1,.534.839a3.8,3.8,0,0,0,.194.944.6.6,0,0,0,.279.284,1.8,1.8,0,0,0,.7.146l.8-.021.735.01.861-.021q.536,0,1.339.031t.856.031H9.167q.681,0,1.475.031t1.1.031a6.558,6.558,0,0,0,1.049-.042A.328.328,0,0,0,13,2.109a2.926,2.926,0,0,0,.116-.755q.042-.494.073-.682a.487.487,0,0,1,.189-.052c.056,0,.122,0,.2.01.014.168.021.3.021.389L13.587,2q0,1.05.083,2.224.042.576.074,1.741a.854.854,0,0,1-.179.021.25.25,0,0,1-.162-.047.267.267,0,0,1-.079-.162,3.66,3.66,0,0,0-.34-1.621q-.226-.246-1.149-.247-1.7,0-3.5.053l-.987.041A9.847,9.847,0,0,0,7.24,5.372c-.013.238-.021.378-.021.42L7.24,7.333,7.208,8.351l.083,2.664a3.3,3.3,0,0,0,.042.6q1.819.063,3.523.063a13.364,13.364,0,0,0,1.934-.073.363.363,0,0,0,.241-.147c.021-.042.077-.406.167-1.091.014-.119.031-.231.052-.336a1.187,1.187,0,0,1,.366-.053,4.225,4.225,0,0,1,.054.452l-.037.692q-.047.955-.047,1.92,0,.619.105,2.056a1.928,1.928,0,0,1-.378-.052,3.28,3.28,0,0,1-.2-.955,1.984,1.984,0,0,0-.116-.6.712.712,0,0,0-.6-.2c-.07,0-.147,0-.231.011-.252.007-.417.011-.494.011H10.472l-.756.011L8.74,13.3l-1.825.011-1.722-.022q-.513,0-1.605.032l-1.417-.011a2.906,2.906,0,0,0-1.017.126.384.384,0,0,0-.209.21L.755,14.5a2.593,2.593,0,0,1-.257.75.3.3,0,0,1-.236.12l-.126-.031-.011-.052a.573.573,0,0,1,.022-.136,13.36,13.36,0,0,0,.209-2.4q0-.987-.031-1.4T.094,9.621a1.391,1.391,0,0,1,.2-.021,1.24,1.24,0,0,1,.2.021,2.692,2.692,0,0,1,.262,1.028,1.38,1.38,0,0,0,.336.829.73.73,0,0,0,.556.2l1.512-.01q.681.031.745.031.891,0,2.6-.031c.1-.022.158-.06.179-.116A16.69,16.69,0,0,0,6.642,8.76c-.021-.335-.031-.587-.031-.755s.009-.519.026-1.055.027-1.03.027-1.484c0-.245,0-.451-.011-.618q-.011-.483-.011-.535a.452.452,0,0,0-.094-.331A.511.511,0,0,0,6.2,3.892l-.734.01q-.179,0-1.984-.052-.368-.011-.609-.011a10.746,10.746,0,0,0-1.909.106.456.456,0,0,0-.3.189,4.247,4.247,0,0,0-.221.818,5.7,5.7,0,0,1-.2.734L.136,5.75a.1.1,0,0,1-.084-.042A.272.272,0,0,1,0,5.529c0-.056,0-.123.005-.2S.013,5.1.021,4.879Q.03,4.343.094,3.547q.042-.514.042-.913,0-.672-.073-2.151C.057.294.052.133.052,0" data-name="Path 162" id="Path_162"></path>
    <path fill="#fff" transform="translate(-516.455 682.763) rotate(-90)" d="M13.84,5.739a1.055,1.055,0,0,1-.273.052.82.82,0,0,1-.189-.031,1.768,1.768,0,0,1-.074-.441c0-.049.005-.131.015-.246s.016-.208.016-.278a1.356,1.356,0,0,0-.189-.766.472.472,0,0,0-.3-.232l-1.2-.1-5.2.031a20.449,20.449,0,0,0-3.556.189,2.605,2.605,0,0,0-1.15.6A3.079,3.079,0,0,0,1,5.776,4.985,4.985,0,0,0,.7,7.418a5.846,5.846,0,0,0,.514,2.733A3.028,3.028,0,0,0,2.64,11.514a6.972,6.972,0,0,0,2.758.415q.053,0,.84-.031h.3c.112,0,.33.007.656.021s.516.022.573.022l3.013-.157a9.767,9.767,0,0,0,1.8-.174.846.846,0,0,0,.409-.288,4.42,4.42,0,0,0,.525-1.553,1.112,1.112,0,0,1,.3-.063,7.963,7.963,0,0,1,.042.808q0,.42-.031.882-.053.692-.053.755l.053,1.658-.011.325-.377-.01a3.691,3.691,0,0,0-.394-1.542,1.092,1.092,0,0,0-.835-.252q-.326,0-1.417.041l-2.173.075-.861-.011-1.092.031a22.188,22.188,0,0,1-2.8-.115,5.758,5.758,0,0,1-1.649-.478,3.491,3.491,0,0,1-1.1-.9,4.682,4.682,0,0,1-.8-1.568A6.338,6.338,0,0,1,0,7.47,7.9,7.9,0,0,1,.21,5.309a5.537,5.537,0,0,1,.955-1.92A3.491,3.491,0,0,1,2.341,2.4a5.478,5.478,0,0,1,2.269-.368h.724L8.275,2l2.373.031h1.6a1.569,1.569,0,0,0,.851-.168.382.382,0,0,0,.168-.336L13.252.913A1.666,1.666,0,0,1,13.4.031.545.545,0,0,1,13.567,0a.182.182,0,0,1,.146.063A.466.466,0,0,1,13.8.347V.618l.011.7V2.979Z" data-name="Path 163" id="Path_163"></path>
    <path fill="#fff" transform="translate(-498.927 682.458) rotate(-90)" d="M0,0A.631.631,0,0,1,.283.084,9.515,9.515,0,0,1,.577,1.679a.933.933,0,0,0,.232.661,2.613,2.613,0,0,0,1.008.127l2.772.073L6.47,2.528l2.456.011h.652q2.215.011,2.761-.021a1.224,1.224,0,0,0,.294-.084,2.559,2.559,0,0,0,.168-.459q.042-.185.3-1.649c.076-.008.133-.011.168-.011a1.493,1.493,0,0,1,.168.011q0,.2-.024.651l-.06,1.6-.021.926.01.273c0,.035-.006.136-.021.3q0,.621.011.715l.063.841q0,.851-.031,1.2a1.881,1.881,0,0,1-.409-.074c-.014-.077-.033-.44-.057-1.091a4.106,4.106,0,0,0-.121-1.123Q12.643,4.3,11.94,4.3q-.167,0-.681-.022H10.63l-1.941.011H8.027l-3.473.021L1.6,4.28l-.651.011q-.315,0-.388.105Q.546,4.659.535,5.938v.713L.6,8.466A3.308,3.308,0,0,0,.74,9.484,4.854,4.854,0,0,0,1.448,10.5a3.42,3.42,0,0,0,.777.672c.056.034.14.094.252.178a5.946,5.946,0,0,0,1.091.535v.347q-.377-.063-.713-.136-1.481-.3-2.466-.42c-.14-.013-.269-.028-.389-.041L.116,7.71q0-5.056-.094-6C.007,1.514,0,1.308,0,1.092Z" data-name="Path 164" id="Path_164"></path>
    <path fill="#fff" transform="translate(-486.22 682.658) rotate(-90)" d="M12.119.419,13.7.849a.92.92,0,0,1,.4.116.215.215,0,0,1,.089.168q0,.189-.452.43a1.435,1.435,0,0,0-.414.294.716.716,0,0,0-.121.335l.011.105-.042.452-.031,2.476.011,2.927v.86l.031,1.626a2.139,2.139,0,0,1-.021.262c-.041.476-.063.77-.063.882a.324.324,0,0,0,.1.252q.042.031.693.346.295.136.3.336a.674.674,0,0,1-.042.21,1.536,1.536,0,0,1-.374.052l-.417-.01-.885.01q-.323,0-2.082-.052a.5.5,0,0,1-.208-.042.394.394,0,0,1-.073-.2.185.185,0,0,1,.077-.146,1.639,1.639,0,0,1,.485-.158,3.525,3.525,0,0,0,1.341-.524,1.169,1.169,0,0,0,.374-.6,9.071,9.071,0,0,0,.114-1.883V7.6c-.28-.014-.535-.021-.767-.021l-6.521.084q-.389,0-1.47-.042l-1.4.011-.777-.011a.854.854,0,0,0-.525.126,1.435,1.435,0,0,0-.3.682Q.5,9.389.451,9.715a.946.946,0,0,1-.083.325H.053L.09,8.55Q.1,7.323.136,6.7L.063,5.172,0,4.049a4.506,4.506,0,0,1,.021-.577l.064-.147a.5.5,0,0,1,.309.1.836.836,0,0,1,.11.388A8.564,8.564,0,0,0,.729,4.847a2.169,2.169,0,0,0,.33.787.551.551,0,0,0,.315.146,11.053,11.053,0,0,0,1.815.1H4.973l3.893-.042.839-.042,2.8-.011V4.092a5.152,5.152,0,0,0-.183-1.836A6.489,6.489,0,0,0,10.655.724q-.518-.335-.519-.587l.021-.1A.214.214,0,0,1,10.272,0a4.875,4.875,0,0,1,.756.167c.538.141.9.224,1.091.252" data-name="Path 165" id="Path_165"></path>
  </g>
</svg>
