<svg xmlns="http://www.w3.org/2000/svg" width="1400" height="133" viewBox="0 0 1400 133" version="1.1">
	<path d="M 1286.566 0.894 C 1285.617 2.428, 1278.020 33.380, 1278.010 35.750 C 1277.991 40.219, 1280.354 38.488, 1288.151 28.319 C 1290.708 24.983, 1294.497 20.959, 1296.570 19.377 C 1300.296 16.533, 1300.516 16.496, 1316.005 16.165 L 1331.671 15.830 1332.233 62.165 C 1332.842 112.410, 1332.485 120.441, 1329.546 122.590 C 1327.756 123.899, 1321.896 125.733, 1313.511 127.608 C 1311.098 128.147, 1309.398 129.147, 1309.209 130.136 C 1308.925 131.625, 1311.704 131.757, 1340.199 131.608 C 1366.208 131.472, 1371.500 131.209, 1371.500 130.051 C 1371.500 129.160, 1369.337 128.188, 1365.500 127.353 C 1355.849 125.253, 1352.189 124.046, 1350.570 122.427 C 1349.249 121.107, 1349.047 114.016, 1349.028 68.355 L 1349.005 15.802 1366.253 16.171 C 1379.261 16.449, 1384.073 16.903, 1385.833 18.020 C 1388.745 19.867, 1391.353 24.903, 1392.982 31.827 C 1394.255 37.235, 1396.471 39.430, 1398.098 36.896 C 1398.592 36.128, 1398.884 27.625, 1398.747 18 C 1398.513 1.451, 1398.395 0.500, 1396.566 0.500 C 1395.338 0.500, 1393.695 2.101, 1392.066 4.884 L 1389.500 9.268 1343.568 9.072 C 1318.248 8.964, 1296.871 8.466, 1295.932 7.964 C 1294.995 7.462, 1293.292 5.465, 1292.148 3.526 C 1290.152 0.144, 1287.734 -0.996, 1286.566 0.894 M 30.618 2.112 C 19.748 4.664, 8.606 13.839, 5.575 22.734 C 3.730 28.147, 3.523 37.678, 5.134 43.052 C 8.045 52.768, 18.819 61.929, 40.859 73.427 C 53.693 80.121, 63.227 87.599, 66.200 93.299 C 72.575 105.523, 65.099 121.256, 50.682 125.955 C 45.338 127.697, 36.036 127.505, 30.089 125.530 C 24.247 123.589, 15.959 116.574, 11.839 110.081 C 10.296 107.651, 8.523 103.066, 7.899 99.893 C 6.839 94.503, 4.460 91.456, 3.506 94.267 C 2.697 96.651, 0.964 121.742, 1.510 123.165 C 3.951 129.527, 33.676 135.070, 49.195 132.058 C 61.151 129.737, 68.567 125.171, 74.464 116.500 C 83.354 103.428, 83.115 84.865, 73.913 73.708 C 69.943 68.895, 59.155 61.602, 46.985 55.503 C 30.046 47.014, 19.347 39.419, 16.411 33.800 C 14.308 29.776, 14.685 23.115, 17.272 18.547 C 25.422 4.157, 48.883 1.991, 59.958 14.605 C 63.306 18.419, 67.333 25.920, 68.394 30.321 C 68.772 31.890, 69.612 32.963, 70.287 32.738 C 71.147 32.451, 71.500 28.872, 71.500 20.436 L 71.500 8.539 67.073 6.097 C 64.639 4.754, 60.139 3.065, 57.073 2.343 C 50.786 0.863, 36.471 0.738, 30.618 2.112 M 733.909 2.896 C 716.064 8.606, 705.733 25.374, 710.363 41.113 C 713.767 52.686, 724.261 61.936, 747.500 73.850 C 766.469 83.575, 774.341 92.092, 774.325 102.872 C 774.315 109.937, 771.654 115.374, 765.601 120.702 C 760.383 125.295, 754.889 127.200, 746.859 127.200 C 738.042 127.200, 731.813 124.647, 724.795 118.154 C 718.469 112.303, 714.498 105.565, 713.370 98.769 C 713.029 96.717, 712.139 94.530, 711.392 93.910 C 709.146 92.046, 708.272 96.289, 707.869 111.001 L 707.500 124.500 712 126.715 C 727.928 134.556, 755.861 134.960, 768.535 127.532 C 782.688 119.238, 790.435 99.800, 785.547 84.853 C 781.669 72.999, 774.553 66.796, 750.173 54.020 C 727.083 41.920, 721 36.335, 721 27.233 C 721 21.382, 722.977 17.106, 727.528 13.109 C 733.232 8.102, 737.448 6.628, 746 6.652 C 759.884 6.692, 769.236 14.100, 773.513 28.448 C 774.161 30.620, 775.153 32.551, 775.718 32.739 C 777.307 33.269, 777.971 29.338, 777.986 19.321 C 778.001 9.184, 777.604 8.357, 771.146 5.090 C 762.513 0.724, 744.091 -0.361, 733.909 2.896 M 466 4.184 C 459.125 4.674, 449.380 4.847, 444.345 4.570 C 437.180 4.176, 434.933 4.375, 434.009 5.489 C 432.237 7.625, 433.448 8.652, 438.563 9.354 C 444.488 10.166, 451.551 13.290, 452.811 15.656 C 453.390 16.742, 454.096 39.093, 454.530 70.045 C 455.181 116.463, 455.089 122.768, 453.742 124.116 C 452.903 124.955, 449.017 126.213, 445.108 126.911 C 440.261 127.778, 438 128.630, 438 129.591 C 438 130.759, 442.113 131.033, 462 131.194 C 475.200 131.301, 487.456 131.414, 489.236 131.444 C 491.488 131.483, 492.570 130.994, 492.793 129.837 C 493.052 128.489, 491.162 127.723, 482.807 125.788 L 472.500 123.403 471.788 95.451 C 471.397 80.078, 470.942 54.735, 470.779 39.134 L 470.481 10.767 472.991 9.786 C 477.080 8.187, 493.750 9.464, 500.006 11.856 C 520.094 19.536, 526.129 46.967, 511.048 62.048 C 504.606 68.490, 498.437 70.469, 487.262 69.680 C 477.291 68.977, 476.780 70.046, 485.044 74.324 C 490.122 76.953, 491.159 77.124, 500 76.782 C 507.621 76.488, 510.622 75.898, 515.175 73.798 C 523.092 70.145, 529.384 63.997, 533.250 56.138 C 536.264 50.011, 536.499 48.803, 536.490 39.515 C 536.481 30.505, 536.189 28.904, 533.578 23.562 C 531.983 20.296, 528.837 15.787, 526.589 13.541 C 516.553 3.520, 503.537 1.510, 466 4.184 M 598.500 4.140 C 591.350 4.670, 581.646 4.890, 576.935 4.629 C 572.224 4.368, 567.771 4.524, 567.039 4.976 C 564.571 6.501, 566.732 8.710, 571.184 9.212 C 577.428 9.915, 584.837 13.441, 585.889 16.209 C 586.374 17.484, 587.105 41.944, 587.513 70.564 C 588.167 116.446, 588.076 122.782, 586.736 124.121 C 585.900 124.957, 582.019 126.212, 578.111 126.911 C 571.435 128.104, 568.966 129.249, 570.734 130.331 C 571.155 130.589, 583.645 130.951, 598.489 131.136 C 622.828 131.438, 625.509 131.310, 625.793 129.837 C 626.045 128.527, 624.073 127.736, 615.804 125.835 L 605.500 123.466 604.835 99.483 C 604.469 86.292, 603.902 60.978, 603.575 43.229 L 602.982 10.958 605.741 9.888 C 609.521 8.423, 625.248 9.361, 631.845 11.445 C 642.935 14.949, 650.943 25.876, 651.781 38.649 C 652.694 52.571, 647.302 62.347, 635.884 67.471 C 630.097 70.069, 628.995 70.231, 620.758 69.697 C 610.299 69.020, 609.717 70.013, 618.044 74.324 C 623.122 76.953, 624.159 77.124, 633 76.782 C 640.592 76.490, 643.605 75.900, 648 73.848 C 656.116 70.058, 662.389 63.986, 666.213 56.218 C 669.235 50.080, 669.500 48.770, 669.500 39.969 C 669.500 30.900, 669.300 29.992, 665.699 22.705 C 661.369 13.944, 656.444 9.478, 647.153 5.885 C 642.397 4.047, 639.119 3.658, 626.500 3.438 C 618.250 3.293, 605.650 3.609, 598.500 4.140 M 859.500 4.030 C 852.900 4.415, 842.438 4.790, 836.250 4.864 C 825.869 4.990, 825 5.148, 825 6.920 C 825 8.541, 825.991 8.947, 831.354 9.521 C 834.849 9.896, 838.325 10.583, 839.080 11.049 C 841.043 12.263, 840.492 116.878, 838.497 121.658 C 837.337 124.437, 836.476 124.958, 831.339 125.994 C 828.128 126.641, 824.600 127.354, 823.500 127.577 C 821.079 128.068, 818.378 129.727, 819.029 130.322 C 820.092 131.295, 871.515 131.467, 871.964 130.500 C 872.219 129.950, 869.294 128.667, 865.464 127.649 C 861.634 126.630, 857.978 125.371, 857.340 124.851 C 855.549 123.389, 854.838 107.313, 855.710 88 L 856.500 70.500 889 69.832 C 906.875 69.465, 922.962 69.403, 924.750 69.694 L 928 70.223 928 95.039 L 928 119.855 925.399 121.901 C 923.968 123.027, 921.155 124.222, 919.149 124.558 C 911.940 125.764, 909 127.076, 909 129.086 C 909 130.859, 909.473 130.955, 914.750 130.259 C 921.208 129.407, 949.875 129.233, 957.412 130 C 967.392 131.016, 962.958 126.353, 951.747 124.043 C 948.018 123.274, 945.643 122.202, 944.997 120.994 C 944.370 119.823, 944 99.320, 944 65.766 C 944 10.238, 944.018 10, 948.151 10 C 949.114 10, 952.174 9.513, 954.951 8.917 C 958.564 8.142, 960 7.360, 960 6.167 C 960 4.658, 957.775 4.500, 936.583 4.500 C 923.704 4.500, 912.840 4.827, 912.441 5.226 C 910.838 6.829, 914.361 8.783, 920.008 9.421 C 924.381 9.916, 926.252 10.602, 926.991 11.983 C 927.591 13.104, 928 23.806, 928 38.389 L 928 62.909 924.750 63.507 C 920.029 64.376, 858.309 63.646, 857.375 62.710 C 856.369 61.702, 855.535 20.291, 856.425 15.547 C 857.295 10.912, 860.228 9.074, 868.150 8.200 C 873.584 7.601, 874.500 7.213, 874.500 5.514 C 874.500 3.137, 874.632 3.150, 859.500 4.030 M 139 5.112 C 129.925 5.448, 120.330 5.786, 117.677 5.862 C 113.661 5.977, 112.910 6.293, 113.190 7.750 C 113.450 9.097, 115.021 9.683, 120.014 10.296 C 123.581 10.733, 127.175 11.762, 128 12.581 C 129.288 13.859, 129.542 21.528, 129.800 66.767 C 129.965 95.750, 129.848 120.468, 129.540 121.696 C 128.949 124.051, 124.944 125.583, 116 126.875 C 112.394 127.396, 111.500 127.920, 111.500 129.512 C 111.500 131.308, 112.127 131.485, 118 131.343 C 127.355 131.116, 153.798 131.098, 158.500 131.315 C 161.806 131.468, 162.500 131.176, 162.500 129.631 C 162.500 128.158, 161.067 127.401, 155.726 126.057 C 152 125.119, 148.428 123.828, 147.789 123.189 C 146.946 122.346, 146.504 107.447, 146.183 69.036 C 145.784 21.316, 145.901 15.800, 147.366 13.565 C 148.962 11.128, 152.627 9.686, 160.250 8.495 C 165.500 7.675, 165.174 5.298, 159.750 4.851 C 157.412 4.658, 148.075 4.775, 139 5.112 M 198.285 5.702 C 197.410 7.977, 199.038 8.845, 205.473 9.534 C 209.022 9.914, 212.730 10.822, 213.713 11.552 C 215.363 12.777, 215.080 13.308, 210 18.500 C 202.410 26.258, 171.975 50.995, 159.425 59.608 L 149.068 66.715 151.284 68.694 C 152.503 69.782, 156.425 72.872, 160 75.559 C 168.867 82.225, 211.935 118.137, 214.852 121.298 L 217.205 123.847 212.352 124.507 C 204.392 125.590, 198.534 127.467, 198.233 129.031 C 197.989 130.296, 202.113 130.502, 227.975 130.513 C 250.721 130.523, 258 130.234, 258 129.322 C 258 127.684, 256.928 127.132, 250.495 125.457 C 241.514 123.118, 235.663 119.541, 224.777 109.740 C 219.125 104.650, 206.175 93.631, 196 85.252 C 185.825 76.874, 175.100 67.870, 172.167 65.244 L 166.835 60.470 190.667 40.692 C 220.651 15.811, 228.517 11, 243.250 8.536 C 245.939 8.087, 247 7.407, 247 6.135 C 247 4.483, 245.336 4.366, 222.873 4.430 C 205.062 4.482, 198.626 4.815, 198.285 5.702 M 996.342 5.551 C 995.316 8.224, 997.733 9.420, 1004.988 9.829 C 1008.811 10.046, 1012.374 10.745, 1012.904 11.384 C 1013.479 12.077, 1014.017 30.695, 1014.236 57.523 C 1014.657 109.168, 1014.680 109.326, 1022.777 117.948 C 1033.469 129.335, 1045.928 133.568, 1066.330 132.746 C 1089.994 131.792, 1102.717 123.827, 1109.183 105.917 C 1111.467 99.591, 1111.500 98.902, 1111.500 57.500 C 1111.500 34.400, 1111.849 14.545, 1112.277 13.379 C 1112.995 11.415, 1119.187 8.799, 1125.500 7.792 C 1126.600 7.616, 1127.500 6.804, 1127.500 5.986 C 1127.500 4.728, 1124.322 4.459, 1106.750 4.230 C 1088.845 3.996, 1086 4.165, 1086 5.461 C 1086 6.289, 1087.233 7.226, 1088.750 7.550 C 1093.973 8.668, 1100.274 11.274, 1102.052 13.052 C 1104.115 15.115, 1104.646 18.996, 1106.011 42 C 1107.288 63.503, 1107.255 88.834, 1105.941 96.934 C 1102.694 116.946, 1090.107 126.467, 1067 126.389 C 1050.401 126.332, 1038.346 120.505, 1033.842 110.361 C 1032.541 107.430, 1031.718 101.881, 1031.025 91.361 C 1029.905 74.351, 1030.152 15.341, 1031.355 12.827 C 1032.509 10.415, 1034.620 9.702, 1042.500 9.065 C 1048.645 8.569, 1049.500 8.256, 1049.500 6.500 C 1049.500 4.558, 1048.744 4.492, 1023.225 4.233 C 1000.015 3.998, 996.879 4.151, 996.342 5.551 M 283.389 6.180 C 282.195 8.111, 284.938 9.260, 292.676 10.072 C 296.979 10.523, 300.591 10.916, 300.703 10.946 C 300.815 10.976, 301.375 12.688, 301.947 14.750 C 303.220 19.331, 303.378 121.855, 302.116 123.846 C 301.605 124.652, 297.949 125.563, 293.003 126.117 C 283.974 127.127, 283 127.454, 283 129.478 C 283 130.616, 292.454 130.750, 340.750 130.296 C 372.512 129.998, 398.902 129.385, 399.393 128.934 C 399.884 128.483, 400.659 123.701, 401.116 118.307 C 401.572 112.913, 402.627 106.250, 403.462 103.500 C 405.399 97.112, 405.391 97, 402.958 97 C 401.406 97, 400.200 98.596, 397.932 103.652 C 393.866 112.714, 388.552 119.678, 383.885 122.059 C 377.949 125.087, 366.547 126.155, 343.798 125.812 C 328.503 125.581, 322.757 125.161, 321.798 124.202 C 320.812 123.216, 320.429 116.297, 320.205 95.452 L 319.910 68 342.521 68 C 356.170 68, 365.897 68.410, 367.062 69.033 C 369.514 70.346, 372.382 76.027, 373.944 82.669 C 375.727 90.247, 379.109 93.977, 379.107 88.363 C 379.093 49.047, 378.892 43, 377.601 43 C 375.289 43, 373.901 45.632, 373.023 51.682 C 372.559 54.882, 371.867 58.283, 371.486 59.239 C 370.269 62.299, 363.954 63.051, 341.819 62.770 L 320.500 62.500 319.847 41.500 C 319.208 20.938, 319.708 13.892, 321.965 11.635 C 322.717 10.883, 331.504 10.390, 348.551 10.145 C 370.348 9.832, 374.356 10.003, 376.392 11.337 C 379.069 13.091, 382.461 18.759, 385.872 27.176 C 389.806 36.884, 390.796 35.677, 391.192 20.689 C 391.383 13.435, 391.184 6.993, 390.750 6.373 C 389.708 4.888, 284.305 4.698, 283.389 6.180 M 1162 6.583 C 1162 8.103, 1163.287 8.537, 1172.374 10.081 C 1183.672 12, 1183 9.580, 1183 48.339 C 1183 66.676, 1182.701 90.600, 1182.336 101.503 C 1181.565 124.512, 1181.645 124.320, 1172.409 125.325 C 1164.520 126.184, 1158.793 127.879, 1159.241 129.222 C 1159.500 130, 1175.222 130.261, 1213.553 130.123 L 1267.500 129.929 1269.675 117.715 C 1273.467 96.423, 1273.413 97, 1271.643 97 C 1270.705 97, 1268.998 99.242, 1267.458 102.498 C 1264.244 109.292, 1256.255 118.177, 1250.117 121.786 C 1245.523 124.486, 1245.388 124.502, 1223.111 124.835 C 1205.475 125.099, 1200.551 124.892, 1199.915 123.863 C 1198.701 121.898, 1198.801 19.452, 1200.022 14.920 C 1201.004 11.273, 1201.225 11.118, 1206.270 10.558 C 1209.146 10.239, 1213.975 9.870, 1217 9.739 C 1221.734 9.533, 1222.500 9.224, 1222.500 7.521 C 1222.500 5.595, 1221.687 5.538, 1192.250 5.421 C 1168.243 5.325, 1162 5.565, 1162 6.583" stroke="none" fill="black" fill-rule="evenodd"/>
</svg>